HIERARCHY
ROOT Hips
{
  OFFSET 0.0000 94.0000 0.0000
  CHANNELS 6 Xposition Yposition Zposition Yrotation Xrotation Zrotation
  JOINT Spine1
  {
    OFFSET 0.0000 8.4839 -3.9483
    CHANNELS 3 Yrotation Xrotation Zrotation
    JOINT Spine2
    {
      OFFSET 0.0000 -7.5932 0.0000
      CHANNELS 3 Yrotation Xrotation Zrotation
      JOINT Spine3
      {
        OFFSET 0.0000 -7.5932 0.0000
        CHANNELS 3 Yrotation Xrotation Zrotation
        JOINT Spine4
        {
          OFFSET 0.0000 -12.8217 0.0000
          CHANNELS 3 Yrotation Xrotation Zrotation
          JOINT Neck
          {
            OFFSET 0.0000 -20.2657 0.0000
            CHANNELS 3 Yrotation Xrotation Zrotation
            JOINT Head
            {
              OFFSET 0.0000 -10.9846 0.0000
              CHANNELS 3 Yrotation Xrotation Zrotation
              JOINT HeadTip
              {
                OFFSET 0.0000 -16.6770 0.0000
                CHANNELS 3 Yrotation Xrotation Zrotation
                End Site
                {
                  OFFSET 0.0000 -8.3385 0.0000
                }
              }
            }
          }
          JOINT RightShoulder
          {
            OFFSET 7.0401 -12.4389 1.9147
            CHANNELS 3 Yrotation Xrotation Zrotation
            JOINT RightArm
            {
              OFFSET 0.0000 -13.4599 0.0000
              CHANNELS 3 Yrotation Xrotation Zrotation
              JOINT RightForeArm
              {
                OFFSET 0.0000 -26.1001 0.0000
                CHANNELS 3 Yrotation Xrotation Zrotation
                JOINT RightHand
                {
                  OFFSET 0.0000 -28.9001 0.0000
                  CHANNELS 3 Yrotation Xrotation Zrotation
                  JOINT RightFinger1Metacarpal
                  {
                    OFFSET -2.7863 -2.0791 0.1030
                    CHANNELS 3 Yrotation Xrotation Zrotation
                    JOINT RightFinger1Proximal
                    {
                      OFFSET 0.0000 -3.9619 0.0000
                      CHANNELS 3 Yrotation Xrotation Zrotation
                      JOINT RightFinger1Distal
                      {
                        OFFSET 0.0000 -3.0071 0.0000
                        CHANNELS 3 Yrotation Xrotation Zrotation
                        JOINT RightFinger1Tip
                        {
                          OFFSET 0.0000 -3.4354 0.0000
                          CHANNELS 3 Yrotation Xrotation Zrotation
                          End Site
                          {
                            OFFSET 0.0000 -1.7177 0.0000
                          }
                        }
                      }
                    }
                  }
                  JOINT RightFinger5Metacarpal
                  {
                    OFFSET 1.4884 -2.4891 0.1030
                    CHANNELS 3 Yrotation Xrotation Zrotation
                    JOINT RightFinger5Proximal
                    {
                      OFFSET 0.0000 -4.8196 0.0000
                      CHANNELS 3 Yrotation Xrotation Zrotation
                      JOINT RightFinger5Medial
                      {
                        OFFSET 0.0000 -3.5541 0.0000
                        CHANNELS 3 Yrotation Xrotation Zrotation
                        JOINT RightFinger5Distal
                        {
                          OFFSET 0.0000 -2.2340 0.0000
                          CHANNELS 3 Yrotation Xrotation Zrotation
                          JOINT RightFinger5Tip
                          {
                            OFFSET 0.0000 -2.2755 0.0000
                            CHANNELS 3 Yrotation Xrotation Zrotation
                            End Site
                            {
                              OFFSET 0.0000 -1.1378 0.0000
                            }
                          }
                        }
                      }
                    }
                  }
                  JOINT RightFinger4Metacarpal
                  {
                    OFFSET 0.5478 -2.7444 0.1030
                    CHANNELS 3 Yrotation Xrotation Zrotation
                    JOINT RightFinger4Proximal
                    {
                      OFFSET 0.0000 -5.1405 0.0000
                      CHANNELS 3 Yrotation Xrotation Zrotation
                      JOINT RightFinger4Medial
                      {
                        OFFSET 0.0000 -4.3922 0.0000
                        CHANNELS 3 Yrotation Xrotation Zrotation
                        JOINT RightFinger4Distal
                        {
                          OFFSET 0.0000 -2.8327 0.0000
                          CHANNELS 3 Yrotation Xrotation Zrotation
                          JOINT RightFinger4Tip
                          {
                            OFFSET 0.0000 -2.7579 0.0000
                            CHANNELS 3 Yrotation Xrotation Zrotation
                            End Site
                            {
                              OFFSET 0.0000 -1.3790 0.0000
                            }
                          }
                        }
                      }
                    }
                  }
                  JOINT RightFinger3Metacarpal
                  {
                    OFFSET -0.5450 -2.7688 0.1030
                    CHANNELS 3 Yrotation Xrotation Zrotation
                    JOINT RightFinger3Proximal
                    {
                      OFFSET 0.0000 -5.3677 0.0000
                      CHANNELS 3 Yrotation Xrotation Zrotation
                      JOINT RightFinger3Medial
                      {
                        OFFSET 0.0000 -4.7024 0.0000
                        CHANNELS 3 Yrotation Xrotation Zrotation
                        JOINT RightFinger3Distal
                        {
                          OFFSET 0.0000 -3.1016 0.0000
                          CHANNELS 3 Yrotation Xrotation Zrotation
                          JOINT RightFinger3Tip
                          {
                            OFFSET 0.0000 -2.9998 0.0000
                            CHANNELS 3 Yrotation Xrotation Zrotation
                            End Site
                            {
                              OFFSET 0.0000 -1.4999 0.0000
                            }
                          }
                        }
                      }
                    }
                  }
                  JOINT RightFinger2Metacarpal
                  {
                    OFFSET -1.6042 -2.6469 0.1031
                    CHANNELS 3 Yrotation Xrotation Zrotation
                    JOINT RightFinger2Proximal
                    {
                      OFFSET 0.0000 -5.5108 0.0000
                      CHANNELS 3 Yrotation Xrotation Zrotation
                      JOINT RightFinger2Medial
                      {
                        OFFSET 0.0000 -4.5805 0.0000
                        CHANNELS 3 Yrotation Xrotation Zrotation
                        JOINT RightFinger2Distal
                        {
                          OFFSET 0.0000 -2.8181 0.0000
                          CHANNELS 3 Yrotation Xrotation Zrotation
                          JOINT RightFinger2Tip
                          {
                            OFFSET 0.0000 -2.7617 0.0000
                            CHANNELS 3 Yrotation Xrotation Zrotation
                            End Site
                            {
                              OFFSET 0.0000 -1.3809 0.0000
                            }
                          }
                        }
                      }
                    }
                  }
                }
              }
            }
          }
          JOINT LeftShoulder
          {
            OFFSET -7.0401 -12.4389 1.9147
            CHANNELS 3 Yrotation Xrotation Zrotation
            JOINT LeftArm
            {
              OFFSET 0.0000 -13.4599 0.0000
              CHANNELS 3 Yrotation Xrotation Zrotation
              JOINT LeftForeArm
              {
                OFFSET 0.0001 -26.1001 0.0000
                CHANNELS 3 Yrotation Xrotation Zrotation
                JOINT LeftHand
                {
                  OFFSET -0.0001 -28.9001 0.0000
                  CHANNELS 3 Yrotation Xrotation Zrotation
                  JOINT LeftFinger5Metacarpal
                  {
                    OFFSET -1.4884 -2.4891 0.1030
                    CHANNELS 3 Yrotation Xrotation Zrotation
                    JOINT LeftFinger5Proximal
                    {
                      OFFSET 0.0000 -4.8196 0.0000
                      CHANNELS 3 Yrotation Xrotation Zrotation
                      JOINT LeftFinger5Medial
                      {
                        OFFSET 0.0000 -3.5541 0.0000
                        CHANNELS 3 Yrotation Xrotation Zrotation
                        JOINT LeftFinger5Distal
                        {
                          OFFSET 0.0000 -2.2340 0.0000
                          CHANNELS 3 Yrotation Xrotation Zrotation
                          JOINT LeftFinger5Tip
                          {
                            OFFSET 0.0000 -2.2755 0.0000
                            CHANNELS 3 Yrotation Xrotation Zrotation
                            End Site
                            {
                              OFFSET 0.0000 -1.1378 0.0000
                            }
                          }
                        }
                      }
                    }
                  }
                  JOINT LeftFinger4Metacarpal
                  {
                    OFFSET -0.5478 -2.7444 0.1030
                    CHANNELS 3 Yrotation Xrotation Zrotation
                    JOINT LeftFinger4Proximal
                    {
                      OFFSET 0.0000 -5.1405 0.0000
                      CHANNELS 3 Yrotation Xrotation Zrotation
                      JOINT LeftFinger4Medial
                      {
                        OFFSET 0.0000 -4.3922 0.0000
                        CHANNELS 3 Yrotation Xrotation Zrotation
                        JOINT LeftFinger4Distal
                        {
                          OFFSET 0.0000 -2.8327 0.0000
                          CHANNELS 3 Yrotation Xrotation Zrotation
                          JOINT LeftFinger4Tip
                          {
                            OFFSET 0.0000 -2.7579 0.0000
                            CHANNELS 3 Yrotation Xrotation Zrotation
                            End Site
                            {
                              OFFSET 0.0000 -1.3790 0.0000
                            }
                          }
                        }
                      }
                    }
                  }
                  JOINT LeftFinger3Metacarpal
                  {
                    OFFSET 0.5450 -2.7688 0.1030
                    CHANNELS 3 Yrotation Xrotation Zrotation
                    JOINT LeftFinger3Proximal
                    {
                      OFFSET 0.0000 -5.3677 0.0000
                      CHANNELS 3 Yrotation Xrotation Zrotation
                      JOINT LeftFinger3Medial
                      {
                        OFFSET 0.0000 -4.7024 0.0000
                        CHANNELS 3 Yrotation Xrotation Zrotation
                        JOINT LeftFinger3Distal
                        {
                          OFFSET 0.0000 -3.1016 0.0000
                          CHANNELS 3 Yrotation Xrotation Zrotation
                          JOINT LeftFinger3Tip
                          {
                            OFFSET 0.0000 -2.9998 0.0000
                            CHANNELS 3 Yrotation Xrotation Zrotation
                            End Site
                            {
                              OFFSET 0.0000 -1.4999 0.0000
                            }
                          }
                        }
                      }
                    }
                  }
                  JOINT LeftFinger2Metacarpal
                  {
                    OFFSET 1.6042 -2.6469 0.1030
                    CHANNELS 3 Yrotation Xrotation Zrotation
                    JOINT LeftFinger2Proximal
                    {
                      OFFSET 0.0000 -5.5107 0.0000
                      CHANNELS 3 Yrotation Xrotation Zrotation
                      JOINT LeftFinger2Medial
                      {
                        OFFSET 0.0000 -4.5805 0.0000
                        CHANNELS 3 Yrotation Xrotation Zrotation
                        JOINT LeftFinger2Distal
                        {
                          OFFSET 0.0000 -2.8181 0.0000
                          CHANNELS 3 Yrotation Xrotation Zrotation
                          JOINT LeftFinger2Tip
                          {
                            OFFSET 0.0000 -2.7617 0.0000
                            CHANNELS 3 Yrotation Xrotation Zrotation
                            End Site
                            {
                              OFFSET 0.0000 -1.3809 0.0000
                            }
                          }
                        }
                      }
                    }
                  }
                  JOINT LeftFinger1Metacarpal
                  {
                    OFFSET 2.7863 -2.0791 0.1030
                    CHANNELS 3 Yrotation Xrotation Zrotation
                    JOINT LeftFinger1Proximal
                    {
                      OFFSET 0.0000 -3.9619 0.0000
                      CHANNELS 3 Yrotation Xrotation Zrotation
                      JOINT LeftFinger1Distal
                      {
                        OFFSET 0.0000 -3.0072 0.0000
                        CHANNELS 3 Yrotation Xrotation Zrotation
                        JOINT LeftFinger1Tip
                        {
                          OFFSET 0.0000 -3.4354 0.0000
                          CHANNELS 3 Yrotation Xrotation Zrotation
                          End Site
                          {
                            OFFSET 0.0000 -1.7177 0.0000
                          }
                        }
                      }
                    }
                  }
                }
              }
            }
          }
        }
      }
    }
  }
  JOINT RightThigh
  {
    OFFSET -8.1000 0.0000 0.0000
    CHANNELS 3 Yrotation Xrotation Zrotation
    JOINT RightShin
    {
      OFFSET 0.0000 -43.2000 0.0000
      CHANNELS 3 Yrotation Xrotation Zrotation
      JOINT RightFoot
      {
        OFFSET 0.0000 -43.3000 -0.0626
        CHANNELS 3 Yrotation Xrotation Zrotation
        JOINT RightToe
        {
          OFFSET 0.0000 -13.1694 6.2394
          CHANNELS 3 Yrotation Xrotation Zrotation
          JOINT RightToeTip
          {
            OFFSET 0.0000 -7.4457 1.2571
            CHANNELS 3 Yrotation Xrotation Zrotation
            End Site
            {
              OFFSET 0.0000 -3.7228 0.6286
            }
          }
        }
      }
    }
  }
  JOINT LeftThigh
  {
    OFFSET 8.1000 0.0000 0.0000
    CHANNELS 3 Yrotation Xrotation Zrotation
    JOINT LeftShin
    {
      OFFSET 0.0000 -43.2000 0.0000
      CHANNELS 3 Yrotation Xrotation Zrotation
      JOINT LeftFoot
      {
        OFFSET 0.0000 -43.3000 -0.0626
        CHANNELS 3 Yrotation Xrotation Zrotation
        JOINT LeftToe
        {
          OFFSET 0.0000 -13.1694 6.2394
          CHANNELS 3 Yrotation Xrotation Zrotation
          JOINT LeftToeTip
          {
            OFFSET 0.0000 -7.4457 1.2571
            CHANNELS 3 Yrotation Xrotation Zrotation
            End Site
            {
              OFFSET 0.0000 -3.7228 0.6286
            }
          }
        }
      }
    }
  }
}
MOTION
Frames: 4
Frame Time: 0.010000
0.0000 94.0000 0.0000 0.0000 0.0000 0.0000 0.0000 0.0001 180.0000 0.0000 0.0000 0.0000 0.0000 0.0000 0.0000 0.0000 0.0000 0.0000 0.0000 0.0000 0.0000 0.0000 0.0000 0.0000 0.0000 0.0000 0.0000 0.0000 0.0000 90.0001 89.9999 0.0000 0.0000 0.0000 0.0000 0.0001 0.0000 0.0000 0.0000 40.8933 20.7046 -22.2077 -4.1067 -20.7048 22.2077 0.0000 0.0000 0.0000 0.0000 0.0003 0.0000 -0.0001 -0.0001 20.0000 0.0000 0.0001 -20.0000 0.0000 0.0000 0.0000 0.0000 0.0000 0.0000 0.0000 0.0000 0.0000 0.0000 -0.0001 10.0000 -0.0001 0.0000 -10.0000 0.0000 0.0000 0.0000 0.0000 0.0000 0.0000 0.0000 0.0000 0.0000 0.0000 -0.0001 -0.0001 -0.0001 0.0001 0.0000 0.0000 0.0000 0.0000 0.0000 0.0000 0.0000 0.0000 0.0000 0.0000 0.0000 -0.0001 -10.0001 -0.0001 0.0001 10.0000 0.0000 0.0000 0.0000 0.0000 0.0000 0.0000 0.0000 0.0000 0.0000 0.0000 0.0000 -90.0000 -89.9999 0.0000 0.0000 0.0001 0.0000 0.0001 0.0000 0.0000 0.0000 0.0001 -0.0001 -20.0000 0.0000 0.0001 20.0000 -0.0003 0.0000 -0.0001 0.0000 0.0000 0.0000 0.0000 0.0000 0.0000 0.0000 -0.0001 -9.9999 -0.0002 0.0001 9.9999 0.0000 0.0000 0.0000 0.0000 0.0000 0.0000 0.0000 0.0000 0.0000 -0.0001 0.0000 0.0000 0.0000 0.0000 0.0000 0.0000 0.0001 0.0000 0.0001 0.0000 0.0000 0.0000 0.0000 0.0000 0.0000 0.0000 10.0001 -0.0001 0.0000 -10.0001 0.0000 0.0000 0.0000 0.0000 0.0000 0.0000 0.0002 0.0000 0.0000 -40.8933 20.7047 22.2076 4.1067 -20.7047 -22.2077 0.0000 0.0000 0.0000 0.0000 0.0004 0.0000 90.0000 0.0000 0.0000 0.0000 0.0000 0.0000 -270.0000 90.0000 0.0000 0.0000 0.0000 0.0000 0.0000 0.0000 0.0000 -90.0000 0.0000 0.0000 0.0000 -0.0001 0.0000 270.0002 90.0000 0.0000 0.0000 0.0000 0.0000 0.0000 0.0000 0.0000 
-78.5232 79.5994 0.1101 -117.2741 2.1023 1.7939 0.0000 0.0001 -180.0000 0.0000 0.0000 0.0000 0.0000 0.0000 0.0000 3.1394 0.0000 0.0000 0.0000 0.0000 0.0000 -1.8425 0.2811 -0.3504 0.0000 0.0000 0.0000 0.0001 0.0000 90.0001 165.1560 -64.9314 -68.0864 0.0000 0.0000 -52.2902 0.0000 0.0000 0.0000 104.2979 28.5705 -11.4108 0.0000 -9.0000 0.0000 0.0000 -9.0000 0.0000 0.0000 0.0003 0.0000 -5.9303 -5.1186 20.5898 -10.8000 -18.0000 -9.0000 0.0000 -18.0000 0.0000 0.0000 -18.0000 0.0000 0.0000 0.0000 0.0000 -2.7258 -2.5476 10.1280 -5.4000 -18.0000 -9.0000 0.0000 -18.0000 0.0000 0.0000 -18.0000 0.0000 0.0000 0.0000 0.0000 0.0000 0.0000 0.0000 0.0000 -18.0000 -5.4000 0.0000 -18.0000 0.0000 0.0000 -18.0000 0.0000 0.0000 0.0000 0.0000 1.2310 0.2170 -9.9977 0.0000 -18.0000 1.8000 0.0000 -18.0000 0.0000 0.0000 -18.0000 0.0000 0.0000 0.0000 0.0000 0.0000 0.0000 -90.0000 -171.0020 -48.2929 60.5708 0.0000 -0.0002 49.0050 0.0000 0.0000 0.0000 5.9303 -5.1186 -20.5898 10.8000 -18.0000 9.0000 0.0000 -18.0000 0.0000 0.0000 -18.0000 0.0000 0.0000 0.0000 0.0000 2.7258 -2.5476 -10.1280 5.4000 -18.0000 9.0000 0.0000 -18.0000 0.0000 0.0000 -18.0000 0.0000 0.0000 0.0000 0.0000 0.0000 0.0000 0.0000 0.0000 -18.0000 5.4000 0.0000 -18.0000 0.0000 0.0000 -18.0000 0.0000 0.0000 0.0000 0.0000 -1.2310 0.2170 9.9977 0.0000 -18.0000 -1.8000 0.0000 -18.0000 0.0000 0.0000 -18.0000 0.0000 0.0002 0.0000 0.0000 -104.2979 28.5705 11.4108 0.0000 -9.0000 0.0000 0.0000 -9.0000 0.0000 0.0000 0.0004 0.0000 100.8796 6.5116 -44.1783 0.1185 0.2512 65.2583 -84.6225 63.3611 -174.9591 0.0000 0.0000 0.0000 0.0000 0.0000 0.0000 -36.0939 23.7140 -35.7748 -0.0471 -0.0828 0.0000 -79.5999 68.5407 12.8757 0.0000 31.7770 0.0000 0.0000 0.0000 0.0000 
-78.4525 86.7976 0.2265 -115.8600 1.9929 1.9049 0.0000 0.0001 180.0000 0.0000 0.0000 0.0000 0.0000 0.0000 0.0000 3.8945 0.0000 0.0000 0.0000 0.0000 0.0000 -1.6103 0.3069 -0.4846 0.0000 0.0000 0.0000 0.0001 0.0000 90.0001 164.1560 -65.0151 -67.0615 0.0000 0.0000 -53.5968 0.0000 0.0000 0.0000 104.2979 28.5705 -11.4108 0.0000 -9.0000 0.0000 0.0000 -9.0000 0.0000 0.0000 0.0003 0.0000 -5.9303 -5.1186 20.5898 -10.8000 -18.0000 -9.0000 0.0000 -18.0000 0.0000 0.0000 -18.0000 0.0000 0.0000 0.0000 0.0000 -2.7258 -2.5476 10.1280 -5.4000 -18.0000 -9.0000 0.0000 -18.0000 0.0000 0.0000 -18.0000 0.0000 0.0000 0.0000 0.0000 0.0000 0.0000 0.0000 0.0000 -18.0000 -5.4000 0.0000 -18.0000 0.0000 0.0000 -18.0000 0.0000 0.0000 0.0000 0.0000 1.2310 0.2170 -9.9977 0.0000 -18.0000 1.8000 0.0000 -18.0000 0.0000 0.0000 -18.0000 0.0000 0.0000 0.0000 0.0000 0.0000 0.0000 -90.0000 -170.9707 -48.3107 61.5671 0.0000 -0.0002 48.6963 0.0000 0.0000 0.0000 5.9303 -5.1186 -20.5898 10.8000 -18.0000 9.0000 0.0000 -18.0000 0.0000 0.0000 -18.0000 0.0000 0.0000 0.0000 0.0000 2.7258 -2.5476 -10.1280 5.4000 -18.0000 9.0000 0.0000 -18.0000 0.0000 0.0000 -18.0000 0.0000 0.0000 0.0000 0.0000 0.0000 0.0000 0.0000 0.0000 -18.0000 5.4000 0.0000 -18.0000 0.0000 0.0000 -18.0000 0.0000 0.0000 0.0000 0.0000 -1.2310 0.2170 9.9977 0.0000 -18.0000 -1.8000 0.0000 -18.0000 0.0000 0.0000 -18.0000 0.0000 0.0002 0.0000 0.0000 -104.2979 28.5705 11.4108 0.0000 -9.0000 0.0000 0.0000 -9.0000 0.0000 0.0000 0.0004 0.0000 104.2133 7.4121 -32.3729 0.0359 0.1411 44.8271 -83.3430 73.1260 -173.6304 0.0000 0.0000 0.0000 0.0000 0.0000 0.0000 -36.1921 21.9390 -33.0457 -0.0456 -0.0828 0.0000 -84.1191 67.4867 7.3045 0.0000 -5.1245 0.0000 0.0000 0.0000 0.0000 
-78.3577 93.9403 0.4090 -114.4387 1.8688 2.0082 0.0000 0.0001 180.0000 0.0000 0.0000 0.0000 0.0000 0.0000 0.0000 4.6483 0.0000 0.0000 0.0000 0.0000 0.0000 -1.4068 0.3321 -0.6235 0.0000 0.0000 0.0000 0.0001 0.0000 90.0000 163.6162 -64.9351 -66.4601 0.0000 0.0000 -54.8102 0.0000 0.0000 0.0000 104.2979 28.5705 -11.4108 0.0000 -9.0000 0.0000 0.0000 -9.0000 0.0000 0.0000 0.0003 0.0000 -5.9303 -5.1186 20.5898 -10.8000 -18.0000 -9.0000 0.0000 -18.0000 0.0000 0.0000 -18.0000 0.0000 0.0000 0.0000 0.0000 -2.7258 -2.5476 10.1280 -5.4000 -18.0000 -9.0000 0.0000 -18.0000 0.0000 0.0000 -18.0000 0.0000 0.0000 0.0000 0.0000 0.0000 0.0000 0.0000 0.0000 -18.0000 -5.4000 0.0000 -18.0000 0.0000 0.0000 -18.0000 0.0000 0.0000 0.0000 0.0000 1.2310 0.2170 -9.9977 0.0000 -18.0000 1.8000 0.0000 -18.0000 0.0000 0.0000 -18.0000 0.0000 0.0000 0.0000 0.0000 0.0000 0.0000 -90.0000 -170.9997 -48.3438 62.6623 0.0000 -0.0002 48.3701 0.0000 0.0000 0.0000 5.9303 -5.1186 -20.5898 10.8000 -18.0000 9.0000 0.0000 -18.0000 0.0000 0.0000 -18.0000 0.0000 0.0000 0.0000 0.0000 2.7258 -2.5476 -10.1280 5.4000 -18.0000 9.0000 0.0000 -18.0000 0.0000 0.0000 -18.0000 0.0000 0.0000 0.0000 0.0000 0.0000 0.0000 0.0000 0.0000 -18.0000 5.4000 0.0000 -18.0000 0.0000 0.0000 -18.0000 0.0000 0.0000 0.0000 0.0000 -1.2310 0.2170 9.9977 0.0000 -18.0000 -1.8000 0.0000 -18.0000 0.0000 0.0000 -18.0000 0.0000 0.0002 0.0000 0.0000 -104.2979 28.5705 11.4108 0.0000 -9.0000 0.0000 0.0000 -9.0000 0.0000 0.0000 0.0004 0.0000 107.1409 8.1283 -8.5492 0.0130 -0.0828 0.0000 77.4281 84.4128 -12.7609 0.0000 0.0000 0.0000 0.0000 0.0000 0.0000 -36.3864 20.3877 -30.6833 -0.0439 -0.0828 0.0000 -87.7239 66.6935 2.8121 0.0000 -4.9149 0.0000 0.0000 0.0000 0.0000 
